<svg width="246" height="69" viewBox="0 0 246 69" fill="none" xmlns="http://www.w3.org/2000/svg">
<rect width="246" height="69" fill="black"/>
<path d="M56.5 43.2424L47.7647 19H43.8824H40L52.6177 51H60.3824L73 19H65.2353L56.5 43.2424Z" fill="#FEFEFE"/>
<path d="M81 29H74V51H81V29Z" fill="#FEFEFE"/>
<path d="M114 29H107V51H114V29Z" fill="#FEFEFE"/>
<path d="M169 29H162V51H169V29Z" fill="#FEFEFE"/>
<path d="M76.5153 19.1423C78.3626 18.6005 80.3005 19.6527 80.8523 21.4971C81.4041 23.3414 80.3624 25.285 78.521 25.8468C76.6656 26.4128 74.7037 25.3613 74.1478 23.5029C73.5917 21.6443 74.6537 19.6882 76.5153 19.1423Z" fill="#FEFEFE"/>
<path d="M109.515 19.1423C111.363 18.6005 113.301 19.6527 113.852 21.4971C114.404 23.3414 113.362 25.285 111.521 25.8468C109.666 26.4128 107.704 25.3613 107.148 23.5029C106.592 21.6443 107.654 19.6882 109.515 19.1423Z" fill="#FEFEFE"/>
<path d="M164.515 19.1423C166.363 18.6005 168.301 19.6527 168.852 21.4971C169.404 23.3414 168.362 25.285 166.521 25.8468C164.666 26.4128 162.704 25.3613 162.148 23.5029C161.592 21.6443 162.654 19.6882 164.515 19.1423Z" fill="#FEFEFE"/>
<path d="M200.875 43.1627C202.986 42.5435 205.201 43.7459 205.831 45.8538C206.462 47.9616 205.271 50.1829 203.167 50.8249C201.046 51.4718 198.804 50.2701 198.169 48.1462C197.533 46.0221 198.747 43.7865 200.875 43.1627Z" fill="#FCCA30"/>
<path d="M92.6827 28.0624C97.8135 27.6683 102.113 29.073 103.666 34.2264C101.967 34.7166 99.6267 35.167 97.8397 35.5862C97.249 33.68 96.1471 32.9196 94.0617 32.864C92.8759 32.8323 91.1258 33.4494 91.1305 34.8176C91.135 36.1008 93.8122 36.4772 94.7777 36.738C98.7574 37.6501 103.721 38.3603 103.987 43.2896C104.281 48.7395 99.6033 50.7775 94.7482 50.9996C90.0201 51.0268 85.0357 49.5723 84 44.4349C85.8194 43.8743 88.0223 43.4135 89.9076 42.9853C90.1984 43.841 90.4146 44.4113 91.153 45.047C92.6942 46.3751 95.6983 46.5816 97.1845 45.073C97.8466 44.4008 97.5299 43.1492 96.6968 42.7743C93.5095 41.3399 89.5748 41.5708 86.6912 39.3731C85.5441 38.4988 84.8828 37.0846 84.7332 35.6979C84.5573 33.9979 85.0873 32.3001 86.2054 30.9813C87.7714 29.1257 90.295 28.2917 92.6827 28.0624Z" fill="#FEFEFE"/>
<path d="M129.319 29.0984C133.74 28.4733 137.724 30.8531 138.64 35.4795C139.103 37.8203 139 42.5 139 42.5V51H133V42.5C132.959 40.7162 133 38 132 36.5C131 35 128.5 35 128.5 35C128.5 35 126 35 125 36.5C124 38 124 40 124 43C124 46 124 47 124 47V51C124 51 118 51.0149 118 51V29L123.996 29V32.4624C124.167 32.2231 124.302 31.9567 124.479 31.7225C125.7 30.1142 127.386 29.3425 129.319 29.0984Z" fill="#FEFEFE"/>
<path d="M145.5 22H152.5V29H157V34H152.5V39C152.5 44 152 46 158 45V49.5V50.5C153.921 51.5336 147.839 51.3433 145.98 46.3014C145.5 45 145.5 43 145.5 39V34H141L141 29L145.5 29V22Z" fill="#FEFEFE"/>
<path d="M182.406 28.0613C182.925 28.0222 183.446 28.0017 183.967 28C186.794 27.9964 189.653 28.6513 191.713 30.7526C192.632 31.6941 193.287 32.8647 193.615 34.1457C194.122 36.1439 193.984 39.4503 193.98 41.6064V51H188.014V47.8695C187.508 48.505 186.911 49.061 186.245 49.5196C182.679 51.9682 176.414 51.4159 173.889 47.5893C172.604 45.1329 172.591 41.8501 174.652 39.8471C177.824 36.7666 183.594 37.4263 187.698 37.4472C187.719 36.6207 187.767 36.06 187.439 35.2881C186.256 32.506 181.711 32.3757 180.131 34.8253C179.926 35.1433 179.762 35.618 179.629 35.9774C177.823 35.6468 175.648 35.0863 173.853 34.6376C174.966 30.4045 178.267 28.4645 182.406 28.0613Z" fill="#FEFEFE"/>
<path d="M181.438 42.0562C183.247 41.966 185.18 42.0091 186.999 42.0186C187.044 44.581 185.935 45.8801 183.576 46.7714C183.434 46.8121 183.29 46.8453 183.144 46.871C177.453 47.8724 175.918 42.7353 181.438 42.0562Z" fill="black"/>
</svg>
